# xmcd CD database file
#
# Track frame offsets:
#	150
#	11615
#	22962
#	36670
#	46645
#	59265
#	72720
#	89782
#	101687
#	112812
#	128330
#	141697
#	153965
#	167335
#
# Disc length: 2405 seconds
#
# Revision: 0
# Processed by: cddbd v1.4PL0 Copyright (c) Steve Scherf et al.
# Submitted via: CDex 1.50Beta7
#
DISCID=b909630e
DTITLE=John Lee Hooker - Collection
DYEAR=1994
DGENRE=Blues
TTITLE0=Boogie Chillun
TTITLE1=Boom Boom
TTITLE2=I Don't Want Your Money
TTITLE3=Dimples
TTITLE4=Hobo Blues
TTITLE5=One Bourbon, One Scotch, One Beer
TTITLE6=Blues Before Sunrise
TTITLE7=Crawling King Snake Blues
TTITLE8=Little Wheel
TTITLE9=Hey Baby
TTITLE10=It's My Own Fault Darling
TTITLE11=I'm In The Mood
TTITLE12=Stella Mae
TTITLE13=Women And Money
EXTD=YEAR: 1994
EXTT0=
EXTT1=
EXTT2=
EXTT3=
EXTT4=
EXTT5=
EXTT6=
EXTT7=
EXTT8=
EXTT9=
EXTT10=
EXTT11=
EXTT12=
EXTT13=
PLAYORDER=
